<?xml version="1.0" standalone="no"?><!DOCTYPE svg PUBLIC "-//W3C//DTD SVG 1.1//EN" "http://www.w3.org/Graphics/SVG/1.1/DTD/svg11.dtd"><svg t="1554355297967" class="icon" style="" viewBox="0 0 1024 1024" version="1.1" xmlns="http://www.w3.org/2000/svg" p-id="2385" xmlns:xlink="http://www.w3.org/1999/xlink" width="32" height="32"><defs><style type="text/css"></style></defs><path d="M512 544c-70.4 0-128-57.6-128-128s57.6-128 128-128 128 57.6 128 128-57.6 128-128 128z m0-64c35.2 0 64-28.8 64-64s-28.8-64-64-64-64 28.8-64 64 28.8 64 64 64z" fill="#50E3C2" p-id="2386"></path><path d="M192 832h640c19.2 0 32 12.8 32 32s-12.8 32-32 32H192c-19.2 0-32-12.8-32-32s12.8-32 32-32zM512 128c-131.2 0-240 108.8-240 240v182.4L224 672h576l-48-121.6v-182.4C752 236.8 646.4 128 512 128zM208 537.6v-169.6C208 201.6 345.6 64 512 64s304 137.6 304 304v169.6l44.8 108.8c12.8 32-3.2 70.4-35.2 83.2-9.6 6.4-16 6.4-25.6 6.4H224c-35.2 0-64-28.8-64-64 0-9.6 0-16 3.2-22.4l44.8-112z" fill="#597EF7" p-id="2387"></path></svg>