<?xml version="1.0" standalone="no"?><!DOCTYPE svg PUBLIC "-//W3C//DTD SVG 1.1//EN" "http://www.w3.org/Graphics/SVG/1.1/DTD/svg11.dtd"><svg t="1554354824019" class="icon" style="" viewBox="0 0 1024 1024" version="1.1" xmlns="http://www.w3.org/2000/svg" p-id="1697" xmlns:xlink="http://www.w3.org/1999/xlink" width="32" height="32"><defs><style type="text/css"></style></defs><path d="M512 544c-19.2 0-32-12.8-32-32s12.8-32 32-32c140.8 0 256-128 256-288 0-19.2 12.8-32 32-32s32 12.8 32 32c0 195.2-144 352-320 352z" fill="#597EF7" p-id="1698"></path><path d="M512 480c19.2 0 32 12.8 32 32s-12.8 32-32 32c-140.8 0-256 128-256 288 0 19.2-12.8 32-32 32s-32-12.8-32-32c0-195.2 144-352 320-352z" fill="#597EF7" p-id="1699"></path><path d="M480 320h64c19.2 0 32 12.8 32 32s-12.8 32-32 32h-64c-19.2 0-32-12.8-32-32s12.8-32 32-32zM480 640h64c19.2 0 32 12.8 32 32s-12.8 32-32 32h-64c-19.2 0-32-12.8-32-32s12.8-32 32-32zM384 192h256c19.2 0 32 12.8 32 32s-12.8 32-32 32h-256c-19.2 0-32-12.8-32-32s12.8-32 32-32zM384 768h256c19.2 0 32 12.8 32 32s-12.8 32-32 32h-256c-19.2 0-32-12.8-32-32s12.8-32 32-32z" fill="#50E3C2" p-id="1700"></path><path d="M832 832c0 19.2-12.8 32-32 32s-32-12.8-32-32c0-76.8-25.6-147.2-73.6-201.6-12.8-12.8-9.6-32 3.2-44.8 12.8-12.8 32-9.6 44.8 3.2 57.6 64 89.6 150.4 89.6 243.2zM192 192c0-19.2 12.8-32 32-32s32 12.8 32 32c0 76.8 25.6 150.4 73.6 201.6 12.8 12.8 9.6 32-3.2 44.8s-32 9.6-44.8-3.2C224 371.2 192 284.8 192 192z" fill="#597EF7" p-id="1701"></path></svg>