<?xml version="1.0" standalone="no"?><!DOCTYPE svg PUBLIC "-//W3C//DTD SVG 1.1//EN" "http://www.w3.org/Graphics/SVG/1.1/DTD/svg11.dtd"><svg t="1554355330439" class="icon" style="" viewBox="0 0 1024 1024" version="1.1" xmlns="http://www.w3.org/2000/svg" p-id="3134" xmlns:xlink="http://www.w3.org/1999/xlink" width="32" height="32"><defs><style type="text/css"></style></defs><path d="M192 384v416h640V384H192z m0-64h640c35.2 0 64 28.8 64 64v416c0 35.2-28.8 64-64 64H192c-35.2 0-64-28.8-64-64V384c0-35.2 28.8-64 64-64z" fill="#597EF7" p-id="3135"></path><path d="M320 480h384c19.2 0 32 12.8 32 32s-12.8 32-32 32H320c-19.2 0-32-12.8-32-32s12.8-32 32-32z" fill="#50E3C2" p-id="3136"></path><path d="M320 256c-19.2 0-32-12.8-32-32 0-54.4 41.6-96 96-96h256c54.4 0 96 41.6 96 96 0 19.2-12.8 32-32 32s-32-12.8-32-32-12.8-32-32-32h-256c-19.2 0-32 12.8-32 32s-12.8 32-32 32z" fill="#597EF7" p-id="3137"></path></svg>